<?xml version="1.0" standalone="no"?><!DOCTYPE svg PUBLIC "-//W3C//DTD SVG 1.1//EN" "http://www.w3.org/Graphics/SVG/1.1/DTD/svg11.dtd"><svg t="1509008710496" class="icon" style="" viewBox="0 0 1024 1024" version="1.1" xmlns="http://www.w3.org/2000/svg" p-id="10246" xmlns:xlink="http://www.w3.org/1999/xlink" width="200" height="200"><defs><style type="text/css"></style></defs><path d="M56.32 211.968l0-88.064 184.32 0-12.288-35.84q-6.144-20.48-11.776-33.28t-8.704-18.944l112.64-11.264 31.744 99.328 163.84 0 0 88.064-344.064 0q21.504 26.624 40.448 54.784t39.424 60.928l-59.392 32.768 115.712 0q12.288-21.504 29.696-51.712t38.912-72.192q-3.072 3.072 0-1.024t11.264-19.456l92.16 31.744-71.68 112.64 128 0 0 88.064-196.608 0 0 91.136 176.128 0 0 88.064-176.128 0 0 224.256q6.144 111.616-107.52 115.712l-39.936 0q-15.36 3.072-29.184 3.584t-23.04 0.512l-12.288-48.128-11.264-51.2q11.264 3.072 29.696 3.584t41.984 0.512q26.624 3.072 40.96-8.704t11.264-35.328l0-204.8-188.416 0 0-88.064 188.416 0 0-91.136-211.968 0 0-88.064 135.168 0-23.552-35.84q-14.336-27.648-26.624-45.568t-21.504-27.136l75.776-39.936-111.616 0zM792.576 971.776l0-495.616-119.808 0 0 16.384q2.048 159.744-25.088 280.064t-87.552 207.36l-44.032-27.648q-14.336-9.216-24.576-17.92t-19.456-13.824q55.296-69.632 79.36-179.2t20.992-257.024l0-384q90.112-3.072 183.296-12.288t192.512-23.552l31.744 91.136-235.52 28.672q-23.552 3.072-41.984 4.096t-29.696 4.096l0 187.392 323.584 0 0 96.256-107.52 0 0 495.616-96.256 0zM20.48 856.064q23.552-38.912 47.104-86.528t45.056-104.96l79.872 27.648q-23.552 60.416-47.616 108.544t-44.544 87.04zM452.608 843.776l-64.512-107.52-23.552-39.936 75.776-35.84 27.648 48.128q21.504 29.696 36.352 53.76t24.064 41.472z" p-id="10247" fill="#ffffff"></path></svg>